<?xml version="1.0" standalone="no"?>
<!DOCTYPE svg PUBLIC "-//W3C//DTD SVG 20010904//EN"
 "http://www.w3.org/TR/2001/REC-SVG-20010904/DTD/svg10.dtd">
<svg version="1.0" xmlns="http://www.w3.org/2000/svg"
 width="32.000000pt" height="32.000000pt" viewBox="0 0 32.000000 32.000000"
 preserveAspectRatio="xMidYMid meet">

<g transform="translate(0.000000,32.000000) scale(0.100000,-0.100000)"
fill="#000000" stroke="none">
<path d="M117 244 c-16 -9 -27 -17 -25 -19 5 -5 75 19 84 28 13 13 -31 6 -59
-9z"/>
<path d="M150 208 c-26 -17 -32 -18 -21 -5 11 14 11 17 -1 17 -21 0 -95 -55
-108 -80 -12 -22 -1 -27 19 -7 10 10 11 8 5 -7 -6 -16 -4 -17 13 -7 16 8 24 7
33 -4 11 -13 58 -30 112 -40 28 -6 30 25 3 35 -49 19 -18 69 55 91 50 15 35
29 -30 29 -29 0 -57 -8 -80 -22z"/>
</g>
</svg>
